<svg width="22" height="21" viewBox="0 0 22 21" fill="none" xmlns="http://www.w3.org/2000/svg">
<path d="M11.0001 21.0001C6.95361 21.0024 3.30455 18.5659 1.75572 14.8276C0.206894 11.0893 1.0636 6.78609 3.92606 3.92601C6.45335 1.39871 10.137 0.411692 13.5893 1.33675C17.0417 2.2618 19.7383 4.9584 20.6633 8.41075C21.5884 11.8631 20.6014 15.5467 18.0741 18.074C16.2015 19.955 13.6542 21.0087 11.0001 21.0001ZM3.00006 11.172C3.04737 15.5733 6.64116 19.1096 11.0426 19.086C15.444 19.0622 18.9996 15.4875 18.9996 11.086C18.9996 6.68452 15.444 3.10978 11.0426 3.08601C6.64116 3.06247 3.04737 6.59877 3.00006 11V11.172ZM8.40906 15L7.00006 13.59L9.59006 11L7.00006 8.41001L8.41006 7.00001L11.0001 9.59001L13.5901 7.00001L15.0001 8.41001L12.4101 11L15.0001 13.59L13.5911 15L11.0001 12.41L8.41006 15H8.40906Z" fill="#2E3A59"/>
</svg>
